<svg width="173" height="61" viewBox="0 0 173 61" fill="none" xmlns="http://www.w3.org/2000/svg">
<g clip-path="url(#clip0_4_880)">
<g clip-path="url(#clip1_4_880)">
<path d="M96.3799 41.9574C91.6599 45.4408 84.8199 47.2908 78.9265 47.2908C71.0548 47.329 63.4526 44.426 57.6099 39.1508C57.1699 38.7508 57.5632 38.2041 58.0932 38.5141C64.5883 42.2315 71.9429 44.1851 79.4265 44.1808C85.0166 44.1534 90.5461 43.0206 95.6965 40.8474C96.4932 40.5141 97.1632 41.3741 96.3832 41.9508" fill="#6D7D93"/>
<path d="M98.3434 39.7174C98.9467 40.4907 97.6767 43.6741 97.1034 45.0974C96.93 45.5274 97.3 45.7007 97.69 45.3741C100.22 43.2574 100.873 38.8207 100.357 38.1774C99.84 37.5341 95.4167 36.9974 92.7167 38.8941C92.3 39.1841 92.3834 39.5874 92.83 39.5307C94.3534 39.3507 97.7367 38.9441 98.3434 39.7174ZM92.94 25.4841C92.9391 25.5463 92.9508 25.6081 92.9746 25.6656C92.9984 25.7232 93.0337 25.7752 93.0783 25.8186C93.123 25.862 93.176 25.8958 93.2342 25.918C93.2924 25.9401 93.3545 25.9501 93.4167 25.9474H97.7334L92.7734 33.0707C92.5473 33.453 92.4405 33.8941 92.4667 34.3374V36.2041C92.4667 36.4774 92.7667 36.7841 93.0567 36.6341C94.4059 35.9364 95.9027 35.5723 97.4217 35.5723C98.9406 35.5723 100.437 35.9364 101.787 36.6341C102.097 36.7974 102.393 36.4841 102.393 36.2141V34.2474C102.391 34.0995 102.349 33.9549 102.272 33.8285C102.195 33.702 102.087 33.5981 101.957 33.5274C100.503 32.7793 98.8756 32.434 97.2434 32.5274L101.523 26.4174C101.92 25.8674 102.143 25.5207 102.143 25.2574V23.6474C102.144 23.5853 102.133 23.5236 102.109 23.4662C102.085 23.4087 102.051 23.3566 102.006 23.313C101.962 23.2694 101.909 23.2352 101.852 23.2124C101.794 23.1897 101.732 23.1789 101.67 23.1807H93.4067C93.345 23.1794 93.2837 23.1905 93.2265 23.2135C93.1693 23.2364 93.1173 23.2708 93.0737 23.3144C93.0301 23.358 92.9957 23.41 92.9728 23.4672C92.9498 23.5244 92.9387 23.5857 92.94 23.6474V25.4841ZM62.8 37.0041C62.8623 37.0058 62.9243 36.9952 62.9824 36.9728C63.0406 36.9504 63.0937 36.9167 63.1386 36.8735C63.1836 36.8304 63.2196 36.7788 63.2444 36.7217C63.2693 36.6645 63.2825 36.603 63.2834 36.5407V29.7007C63.2867 28.2074 63.21 26.1507 65.0234 26.1507C66.8367 26.1507 66.57 28.2674 66.57 29.7041V36.5441C66.5717 36.6638 66.6193 36.7784 66.7031 36.864C66.7868 36.9497 66.9003 36.9998 67.02 37.0041H69.5434C69.6055 37.0054 69.6673 36.9945 69.7253 36.9719C69.7832 36.9493 69.8361 36.9156 69.881 36.8725C69.9259 36.8295 69.9619 36.7781 69.9869 36.7211C70.0119 36.6642 70.0254 36.6029 70.0267 36.5407V29.7007C70.0267 28.9674 70.0034 27.8841 70.26 27.2341C70.3789 26.9294 70.5849 26.6664 70.8522 26.4779C71.1195 26.2894 71.4364 26.1837 71.7634 26.1741C72.49 26.1741 73.0534 26.4174 73.24 27.2874C73.36 27.8007 73.3134 29.1607 73.3134 29.7007V36.5441C73.315 36.6638 73.3626 36.7784 73.4464 36.864C73.5302 36.9497 73.6436 36.9998 73.7634 37.0041H76.2734C76.3992 37.0068 76.521 36.9595 76.6122 36.8727C76.7034 36.7859 76.7565 36.6666 76.76 36.5407V28.4007C76.76 27.0141 76.92 25.4374 76.1234 24.3541C75.7165 23.8399 75.1808 23.4426 74.5706 23.2026C73.9604 22.9625 73.2976 22.8884 72.6494 22.9876C72.0013 23.0868 71.391 23.3559 70.8805 23.7674C70.3701 24.179 69.9777 24.7184 69.7434 25.3307C69.0367 23.7041 68.0534 22.9441 66.48 22.9441C64.9067 22.9441 63.78 23.7041 63.1734 25.3307H63.1267V23.6641C63.1169 23.5479 63.0645 23.4394 62.9796 23.3594C62.8947 23.2794 62.7833 23.2336 62.6667 23.2307H60.3334C60.2075 23.228 60.0857 23.2753 59.9945 23.3621C59.9033 23.4489 59.8502 23.5682 59.8467 23.6941V36.5807C59.8579 36.6938 59.9096 36.7989 59.9924 36.8767C60.0751 36.9546 60.1832 36.9998 60.2967 37.0041H62.81H62.8ZM109.257 22.9407C105.62 22.9407 103.59 26.0641 103.59 30.0841C103.59 34.1041 105.59 37.2774 109.257 37.2774C112.777 37.2774 115.007 34.1541 115.007 30.2174C115.007 26.1507 112.987 22.9407 109.257 22.9407ZM109.257 34.6074C107.287 34.6074 107.31 31.2407 107.31 29.6641C107.31 28.0874 107.427 25.5641 109.28 25.5641C110.08 25.5641 110.64 25.9174 110.923 26.8141C111.214 27.9298 111.341 29.0818 111.3 30.2341C111.3 31.9007 111.21 34.6174 109.257 34.6174V34.6074ZM119.843 37.0041C119.97 37.0068 120.092 36.9597 120.183 36.8729C120.275 36.7862 120.329 36.6669 120.333 36.5407V29.5941C120.288 28.7603 120.424 27.9266 120.733 27.1507C120.851 26.8573 121.05 26.6039 121.308 26.4212C121.566 26.2385 121.871 26.1341 122.187 26.1207C123.927 26.1207 123.76 28.1807 123.76 29.5941V36.5941C123.774 36.7047 123.827 36.8067 123.91 36.8818C123.992 36.9569 124.099 37.0002 124.21 37.0041H126.73C126.846 37.0061 126.958 36.966 127.047 36.8912C127.135 36.8163 127.193 36.7119 127.21 36.5974V28.4841C127.21 27.2374 127.21 25.4841 126.543 24.4674C126.231 23.9784 125.796 23.5803 125.281 23.3134C124.766 23.0465 124.189 22.9203 123.61 22.9474C121.873 22.9474 120.887 23.7874 120.183 25.5507H120.137V23.5741C120.111 23.474 120.053 23.3849 119.973 23.32C119.893 23.2551 119.793 23.218 119.69 23.2141H117.357C117.239 23.2131 117.125 23.2554 117.037 23.3328C116.948 23.4102 116.891 23.5174 116.877 23.6341V36.5441C116.878 36.6638 116.926 36.7784 117.01 36.864C117.093 36.9497 117.207 36.9998 117.327 37.0041H119.83H119.843ZM90.83 34.6407C90.37 34.0041 89.88 33.4907 89.88 32.3074V28.3974C89.88 26.7307 89.9967 25.2107 88.7734 24.0641C87.81 23.1507 86.21 22.8174 84.99 22.8174C82.5967 22.8174 79.9267 23.7107 79.3667 26.6674C79.3548 26.7267 79.3552 26.7879 79.368 26.847C79.3807 26.9062 79.4056 26.9621 79.4409 27.0112C79.4763 27.0603 79.5214 27.1016 79.5734 27.1325C79.6255 27.1634 79.6833 27.1832 79.7434 27.1907L82.18 27.4574C82.2928 27.4378 82.3961 27.3819 82.4743 27.2983C82.5525 27.2147 82.6013 27.1079 82.6134 26.9941C82.8267 25.9741 83.6767 25.4841 84.6367 25.4841C84.9083 25.4718 85.1787 25.5261 85.4245 25.6423C85.6702 25.7585 85.8839 25.933 86.0467 26.1507C86.4 26.6674 86.3534 27.3741 86.3534 27.9741V28.3074C84.8967 28.4707 82.99 28.5774 81.6267 29.1774C80.8144 29.5054 80.1227 30.0754 79.6456 30.8101C79.1685 31.5448 78.9292 32.4086 78.96 33.2841C78.96 35.8974 80.6067 37.2041 82.72 37.2041C84.51 37.2041 85.4867 36.7807 86.8667 35.3774C87.2416 36.0157 87.7295 36.5805 88.3067 37.0441C88.3995 37.0966 88.5061 37.1193 88.6123 37.1092C88.7184 37.099 88.8189 37.0565 88.9 36.9874C89.4 36.5374 90.3134 35.7441 90.8267 35.3207C90.8725 35.2768 90.909 35.2242 90.934 35.1659C90.959 35.1076 90.9721 35.0449 90.9724 34.9814C90.9727 34.918 90.9603 34.8552 90.9358 34.7966C90.9113 34.7381 90.8754 34.6851 90.83 34.6407ZM86.3534 30.8441C86.3534 31.8241 86.3767 32.6374 85.8834 33.5107C85.7223 33.8394 85.4757 34.1186 85.1696 34.3192C84.8634 34.5198 84.509 34.6343 84.1434 34.6507C83.1767 34.6507 82.6134 33.9174 82.6134 32.8307C82.6134 30.6907 84.5334 30.3007 86.3534 30.3007V30.8441ZM57.8767 34.6407C57.4167 34.0041 56.9267 33.4907 56.9267 32.3074V28.3974C56.9267 26.7307 57.0467 25.2107 55.8234 24.0641C54.8767 23.1507 53.26 22.8174 52.0367 22.8174C49.6467 22.8174 46.9767 23.7107 46.4167 26.6674C46.4047 26.7265 46.4051 26.7874 46.4176 26.8463C46.4302 26.9053 46.4548 26.961 46.4898 27.0101C46.5248 27.0592 46.5695 27.1005 46.6211 27.1316C46.6728 27.1627 46.7303 27.1828 46.79 27.1907L49.2267 27.4574C49.3394 27.4369 49.4426 27.3808 49.5211 27.2975C49.5997 27.2141 49.6495 27.1078 49.6633 26.9941C49.8767 25.9741 50.7267 25.4841 51.6833 25.4841C51.9549 25.4718 52.2254 25.5261 52.4711 25.6423C52.7169 25.7585 52.9305 25.933 53.0933 26.1507C53.4467 26.6674 53.4 27.3741 53.4 27.9741V28.3074C51.9433 28.4707 50.04 28.5774 48.6733 29.1774C47.861 29.5054 47.1694 30.0754 46.6923 30.8101C46.2152 31.5448 45.9758 32.4086 46.0067 33.2841C46.0067 35.8974 47.6533 37.2041 49.77 37.2041C51.5567 37.2041 52.5333 36.7807 53.9133 35.3774C54.2893 36.015 54.7771 36.5796 55.3534 37.0441C55.4461 37.0966 55.5528 37.1193 55.6589 37.1092C55.7651 37.099 55.8655 37.0565 55.9467 36.9874C56.4467 36.5374 57.36 35.7441 57.8734 35.3207C57.9196 35.2771 57.9564 35.2245 57.9817 35.1662C58.007 35.1079 58.0202 35.045 58.0205 34.9814C58.0208 34.9179 58.0082 34.8549 57.9835 34.7963C57.9588 34.7378 57.9225 34.6848 57.8767 34.6407ZM53.4 30.8441C53.4 31.8241 53.4233 32.6374 52.93 33.5107C52.7689 33.8394 52.5224 34.1186 52.2162 34.3192C51.9101 34.5198 51.5556 34.6343 51.19 34.6507C50.2267 34.6507 49.66 33.9174 49.66 32.8307C49.66 30.6907 51.5833 30.3007 53.4 30.3007V30.8441Z" fill="#6D7D93"/>
</g>
</g>
<defs>
<clipPath id="clip0_4_880">
<rect width="84" height="40" fill="white" transform="translate(44.8097 10.8174)"/>
</clipPath>
<clipPath id="clip1_4_880">
<rect width="84" height="40" fill="white" transform="translate(44.8097 10.8174)"/>
</clipPath>
</defs>
</svg>
