<svg width="173" height="49" viewBox="0 0 173 49" fill="none" xmlns="http://www.w3.org/2000/svg">
<g clip-path="url(#clip0_4_906)">
<g clip-path="url(#clip1_4_906)">
<g clip-path="url(#clip2_4_906)">
<mask id="mask0_4_906" style="mask-type:luminance" maskUnits="userSpaceOnUse" x="15" y="10" width="143" height="29">
<path d="M157.914 10.8174H15.7101V38.8174H157.914V10.8174Z" fill="white"/>
</mask>
<g mask="url(#mask0_4_906)">
<path d="M32.2058 16.0789L23.9579 21.3405L32.2058 26.6021L23.9579 31.8636L15.7101 26.5736L23.9579 21.3121L15.7101 16.0789L23.9579 10.8174L32.2058 16.0789ZM23.9153 33.5558L32.1631 28.2943L40.411 33.5558L32.1631 38.8174L23.9153 33.5558ZM32.2058 26.5736L40.4536 21.3121L32.2058 16.0789L40.411 10.8174L48.6588 16.0789L40.411 21.3405L48.6588 26.6021L40.411 31.8636L32.2058 26.5736Z" fill="#6D7D93"/>
<path d="M55.13 16.0791H61.7994C66.0513 16.0791 69.5637 18.5393 69.5637 24.1564V25.3367C69.5637 30.9964 66.2788 33.5419 61.9274 33.5419H55.13V16.0791ZM58.8558 19.2503V30.3565H61.7141C64.1315 30.3565 65.7527 28.778 65.7527 25.2656V24.3412C65.7527 20.8288 64.0462 19.2503 61.5861 19.2503H58.8558ZM71.5404 19.4209H74.5267L75.0102 22.7059C75.579 20.4733 77.0295 19.2787 79.6602 19.2787H80.5846V23.0472H79.0487C76.0198 23.0472 75.2803 24.0995 75.2803 27.0858V33.5845H71.5973V19.4209H71.5404ZM81.324 26.7872V26.389C81.324 21.6536 84.353 19.0654 88.4769 19.0654C92.6861 19.0654 95.6298 21.6536 95.6298 26.389V26.7872C95.6298 31.4372 92.7715 33.94 88.4769 33.94C83.9121 33.8974 81.324 31.4515 81.324 26.7872ZM91.8613 26.7445V26.389C91.8613 23.7582 90.5388 22.1797 88.4342 22.1797C86.3723 22.1797 85.0071 23.6302 85.0071 26.389V26.7445C85.0071 29.2899 86.3296 30.7404 88.4342 30.7404C90.5388 30.6978 91.8613 29.2899 91.8613 26.7445ZM97.5637 19.4209H100.635L100.991 22.0944C101.73 20.3026 103.309 19.0654 105.641 19.0654C109.239 19.0654 111.614 21.6536 111.614 26.4459V26.844C111.614 31.4941 108.983 33.9542 105.641 33.9542C103.408 33.9542 101.873 32.9446 101.119 31.3235V38.4763H97.5211L97.5637 19.4209ZM107.874 26.7445V26.4316C107.874 23.616 106.423 22.2224 104.489 22.2224C102.427 22.2224 101.062 23.8009 101.062 26.4316V26.7018C101.062 29.2046 102.385 30.7831 104.446 30.7831C106.565 30.7404 107.874 29.3895 107.874 26.7445ZM117.06 30.968L116.747 33.5561H113.59V14.6855H117.188V21.9238C117.985 20.0751 119.563 19.0654 121.796 19.0654C125.18 19.1081 127.683 21.4403 127.683 26.133V26.5739C127.683 31.2666 125.308 33.9542 121.71 33.9542C119.335 33.8974 117.8 32.8024 117.06 30.968ZM123.9 26.5739V26.2183C123.9 23.6302 122.492 22.1797 120.516 22.1797C118.496 22.1797 117.089 23.8009 117.089 26.261V26.5739C117.089 29.2046 118.454 30.7404 120.473 30.7404C122.635 30.7404 123.9 29.3895 123.9 26.5739ZM129.261 26.7872V26.389C129.261 21.6536 132.29 19.0654 136.414 19.0654C140.623 19.0654 143.567 21.6536 143.567 26.389V26.7872C143.567 31.4372 140.666 33.94 136.414 33.94C131.849 33.8974 129.261 31.4515 129.261 26.7872ZM139.827 26.7445V26.389C139.827 23.7582 138.505 22.1797 136.4 22.1797C134.338 22.1797 132.973 23.6302 132.973 26.389V26.7445C132.973 29.2899 134.295 30.7404 136.4 30.7404C138.519 30.6978 139.827 29.2899 139.827 26.7445ZM148.388 26.2183L143.425 19.4209H147.677L150.535 23.6729L153.436 19.4209H157.645L152.611 26.1757L157.915 33.5561H153.749L150.507 28.8633L147.35 33.5561H142.998L148.388 26.2183Z" fill="#6D7D93"/>
</g>
</g>
</g>
</g>
<defs>
<clipPath id="clip0_4_906">
<rect width="143" height="28" fill="white" transform="translate(15.3097 10.8174)"/>
</clipPath>
<clipPath id="clip1_4_906">
<rect width="143" height="28" fill="white" transform="translate(15.3097 10.8174)"/>
</clipPath>
<clipPath id="clip2_4_906">
<rect width="143" height="28" fill="white" transform="translate(15.3097 10.8174)"/>
</clipPath>
</defs>
</svg>
