<svg width="173" height="49" viewBox="0 0 173 49" fill="none" xmlns="http://www.w3.org/2000/svg">
<g clip-path="url(#clip0_4_871)">
<g clip-path="url(#clip1_4_871)">
<g clip-path="url(#clip2_4_871)">
<mask id="mask0_4_871" style="mask-type:luminance" maskUnits="userSpaceOnUse" x="37" y="10" width="99" height="29">
<path d="M135.71 10.8174H37.7101V38.8174H135.71V10.8174Z" fill="white"/>
</mask>
<g mask="url(#mask0_4_871)">
<path fill-rule="evenodd" clip-rule="evenodd" d="M102.307 20.4032C106.122 20.4032 109.465 23.3424 109.465 27.3167C109.464 31.2353 106.38 34.2312 102.795 34.2312C101.21 34.2312 100.099 33.7685 99.0295 32.7196V38.8174H95.8197V27.5234C95.8197 23.2976 98.875 20.4032 102.307 20.4032ZM100.795 11.6338C101.597 10.8347 102.801 10.5973 103.846 11.0324C104.891 11.4675 105.571 12.4893 105.569 13.6213C105.565 13.8563 105.532 14.0904 105.469 14.3181L114.315 21.2079C115.281 20.4311 116.435 19.9232 117.66 19.7356V16.5102C116.79 16.1036 116.232 15.2318 116.227 14.2715V14.1974C116.227 12.8257 117.339 11.7137 118.711 11.7137H118.785C120.157 11.7137 121.269 12.8257 121.269 14.1974V14.2715C121.265 15.2318 120.707 16.1036 119.837 16.5102V19.7356C122.759 20.1791 125.096 22.3939 125.696 25.2877C126.296 28.1816 125.033 31.1432 122.528 32.712C120.023 34.2809 116.807 34.1255 114.465 32.3227L111.844 34.9445C111.913 35.1587 111.949 35.3818 111.952 35.6066C111.951 36.8754 110.922 37.9032 109.653 37.9029C108.385 37.9026 107.356 36.8741 107.356 35.6054C107.356 34.3367 108.383 33.3077 109.652 33.3067C109.877 33.3097 110.1 33.3461 110.314 33.4146L112.964 30.7644C111.297 28.3895 111.254 25.2367 112.856 22.8174L104.145 16.0392C103.726 16.2826 103.251 16.4119 102.767 16.4142C101.635 16.4127 100.615 15.7293 100.184 14.6829C99.7521 13.6364 99.9935 12.433 100.795 11.6338ZM70.8367 15.9907V22.0804C71.9085 21.0296 73.0168 20.5687 74.6044 20.5687C78.1892 20.5714 81.272 23.5673 81.272 27.485C81.272 31.4521 77.9221 34.3986 74.1142 34.3986C70.6812 34.3986 67.6268 31.5033 67.6268 27.2783V15.9907H70.8367ZM56.8111 20.4763V28.4013C56.8111 29.9456 58.0629 31.1974 59.6072 31.1974C61.1514 31.1974 62.4032 29.9456 62.4032 28.4013V20.4763H65.5966V28.4013C65.5966 31.7125 62.9124 34.3967 59.6012 34.3967C56.29 34.3967 53.6058 31.7125 53.6058 28.4013V20.4763H56.8111ZM131.086 17.2674V20.9811H134.031V23.796H131.086V29.3515C131.086 30.6062 131.625 31.4256 133.519 31.4256C133.878 31.4228 134.289 31.3981 134.646 31.3734L133.853 34.2925C133.431 34.3675 133.001 34.4022 132.571 34.3949C129.833 34.3949 127.836 32.9363 127.836 30.0419V18.726L131.086 17.2674ZM88.6125 15.8801C90.3528 15.8801 92.4781 16.8595 93.5261 18.277L91.4274 20.7516C90.6071 19.8755 89.3542 19.1531 88.405 19.1531C87.228 19.1531 86.1535 19.6679 86.1535 21.293C86.148 24.3081 93.805 22.1471 93.805 29.1009C93.805 32.3236 91.1475 34.3849 87.8434 34.3849C85.6422 34.3849 83.8041 33.4557 82.3135 31.6267L84.6436 29.2043C85.5142 30.1846 86.1288 31.111 88.0245 31.111C89.2262 31.111 90.276 30.1562 90.276 29.0753C90.276 25.5692 82.6199 27.5573 82.6199 21.293C82.6199 17.9167 85.1347 15.8801 88.6125 15.8801ZM41.0882 15.8801V23.6304H48.2085V15.8801H51.5875V34.3812H48.2075V26.8824H41.0891V34.3812H37.7101V15.8801H41.0882ZM74.5843 23.8819C73.2828 23.8819 72.0802 24.5762 71.4294 25.7034C70.7787 26.8305 70.7787 28.2191 71.4294 29.3462C72.0802 30.4733 73.2828 31.1677 74.5843 31.1677C76.5962 31.1677 78.2271 29.5367 78.2271 27.5248C78.2271 25.5129 76.5962 23.8819 74.5843 23.8819ZM102.782 23.6336C100.77 23.6336 99.1392 25.2646 99.1392 27.2765C99.1392 29.2884 100.77 30.9194 102.782 30.9194C104.794 30.9194 106.425 29.2884 106.425 27.2765C106.425 25.2646 104.794 23.6336 102.782 23.6336ZM118.751 23.0945C117.432 23.0583 116.197 23.741 115.527 24.8774C114.857 26.0138 114.857 27.4244 115.527 28.5608C116.197 29.6972 117.432 30.38 118.751 30.3437C120.705 30.2716 122.251 28.6689 122.25 26.7164C122.249 24.764 120.702 23.1629 118.751 23.0945Z" fill="#6D7D93"/>
</g>
</g>
</g>
</g>
<defs>
<clipPath id="clip0_4_871">
<rect width="99" height="28" fill="white" transform="translate(37.3097 10.8174)"/>
</clipPath>
<clipPath id="clip1_4_871">
<rect width="99" height="28" fill="white" transform="translate(37.3097 10.8174)"/>
</clipPath>
<clipPath id="clip2_4_871">
<rect width="99" height="28" fill="white" transform="translate(37.3097 10.8174)"/>
</clipPath>
</defs>
</svg>
