<svg width="25" height="25" viewBox="0 0 25 25" fill="none" xmlns="http://www.w3.org/2000/svg">
<g clip-path="url(#clip0_4_964)">
<g clip-path="url(#clip1_4_964)">
<path d="M12.8376 2.90728L13.0929 2.91197C17.6687 3.06294 21.3244 6.8392 21.3088 11.4599L21.3087 11.5623C21.2566 14.3186 19.8776 17.0325 17.5894 19.4546C16.4606 20.6303 15.2001 21.6712 13.8329 22.5566L13.8429 22.5493L13.7948 22.59C13.2482 22.9827 12.524 23.0108 11.9521 22.6742L11.8229 22.59L11.7626 22.5427L11.3492 22.2644C9.632 21.0806 8.1027 19.6444 6.81582 18.0081L6.49917 17.5949C5.15096 15.8279 4.38551 13.6833 4.3089 11.4335L4.31352 11.1486C4.46399 6.55862 8.22866 2.89166 12.8376 2.90728ZM12.8326 4.42474L12.5923 4.42799C8.84421 4.54225 5.83448 7.61948 5.82164 11.4071L5.84074 11.7642C5.97065 13.5447 6.61608 15.2514 7.70526 16.679C9.05747 18.4904 10.7169 20.0488 12.6076 21.2832L12.6898 21.3453C12.7581 21.4047 12.8595 21.4047 12.9279 21.3453L13.0125 21.2817C14.2816 20.4598 15.4518 19.4936 16.4955 18.4064C18.5423 16.2398 19.7523 13.8587 19.7961 11.5479L19.7928 11.2164C19.6788 7.45669 16.611 4.43766 12.8326 4.42474ZM12.8088 8.30851C14.5972 8.30851 16.047 9.76277 16.047 11.5567C16.047 13.3506 14.5972 14.8048 12.8088 14.8048C11.0204 14.8048 9.57065 13.3506 9.57065 11.5567C9.57065 9.76277 11.0204 8.30851 12.8088 8.30851ZM12.8088 9.82594C11.8559 9.82594 11.0834 10.6008 11.0834 11.5567C11.0834 12.5125 11.8559 13.2874 12.8088 13.2874C13.7618 13.2874 14.5342 12.5125 14.5342 11.5567C14.5342 10.6008 13.7618 9.82594 12.8088 9.82594Z" fill="#6D7D93"/>
</g>
</g>
<defs>
<clipPath id="clip0_4_964">
<rect width="24" height="24" fill="white" transform="translate(0.809692 0.907227)"/>
</clipPath>
<clipPath id="clip1_4_964">
<rect width="24" height="24" fill="white" transform="translate(0.809692 0.907227)"/>
</clipPath>
</defs>
</svg>
