<svg width="16" height="13" viewBox="0 0 16 13" fill="none" xmlns="http://www.w3.org/2000/svg">
<path d="M14.8097 0.918945H1.30969C1.10657 0.918945 0.930786 0.993164 0.782349 1.1416C0.633911 1.29004 0.559692 1.46582 0.559692 1.66895V2.41895C0.559692 2.62207 0.633911 2.79785 0.782349 2.94629C0.930786 3.09473 1.10657 3.16895 1.30969 3.16895H14.8097C15.0128 3.16895 15.1886 3.09473 15.337 2.94629C15.4855 2.79785 15.5597 2.62207 15.5597 2.41895V1.66895C15.5597 1.46582 15.4855 1.29004 15.337 1.1416C15.1886 0.993164 15.0128 0.918945 14.8097 0.918945ZM14.8097 5.41895H1.30969C1.10657 5.41895 0.930786 5.49316 0.782349 5.6416C0.633911 5.79004 0.559692 5.96582 0.559692 6.16895V6.91895C0.559692 7.12207 0.633911 7.29785 0.782349 7.44629C0.930786 7.59473 1.10657 7.66895 1.30969 7.66895H14.8097C15.0128 7.66895 15.1886 7.59473 15.337 7.44629C15.4855 7.29785 15.5597 7.12207 15.5597 6.91895V6.16895C15.5597 5.96582 15.4855 5.79004 15.337 5.6416C15.1886 5.49316 15.0128 5.41895 14.8097 5.41895ZM14.8097 9.91895H1.30969C1.10657 9.91895 0.930786 9.99316 0.782349 10.1416C0.633911 10.29 0.559692 10.4658 0.559692 10.6689V11.4189C0.559692 11.6221 0.633911 11.7979 0.782349 11.9463C0.930786 12.0947 1.10657 12.1689 1.30969 12.1689H14.8097C15.0128 12.1689 15.1886 12.0947 15.337 11.9463C15.4855 11.7979 15.5597 11.6221 15.5597 11.4189V10.6689C15.5597 10.4658 15.4855 10.29 15.337 10.1416C15.1886 9.99316 15.0128 9.91895 14.8097 9.91895Z" fill="#030407"/>
</svg>
