<svg width="173" height="51" viewBox="0 0 173 51" fill="none" xmlns="http://www.w3.org/2000/svg">
<g clip-path="url(#clip0_4_886)">
<g clip-path="url(#clip1_4_886)">
<g clip-path="url(#clip2_4_886)">
<mask id="mask0_4_886" style="mask-type:luminance" maskUnits="userSpaceOnUse" x="34" y="10" width="106" height="31">
<path d="M139.243 10.8174H34.4767V40.8174H139.243V10.8174Z" fill="white"/>
</mask>
<g mask="url(#mask0_4_886)">
<path fill-rule="evenodd" clip-rule="evenodd" d="M70.6408 27.4346C69.7501 26.9424 69.2814 26.544 69.2814 25.9815C69.2814 25.2549 69.9142 24.8096 70.922 24.8096C72.0939 24.8096 73.1251 25.3018 73.1251 25.3018L73.9454 22.794C73.9454 22.794 73.1954 22.208 70.9689 22.208C67.8751 22.208 65.7189 23.9893 65.7189 26.4737C65.7189 27.8799 66.7267 28.958 68.0626 29.7315C69.1408 30.3408 69.5158 30.7862 69.5158 31.419C69.5158 32.0987 68.9767 32.6377 67.9689 32.6377C66.4689 32.6377 65.0626 31.8643 65.0626 31.8643L64.1954 34.3721C64.1954 34.3721 65.5079 35.2393 67.6876 35.2393C70.8751 35.2393 73.1486 33.669 73.1486 30.8565C73.1954 29.3096 72.0236 28.2315 70.6408 27.4346ZM83.3439 22.1612C81.7736 22.1612 80.5548 22.9112 79.5939 24.0362L79.547 24.0127L80.9064 16.8877H77.3673L73.922 35.0049H77.4611L78.6329 28.8174C79.1017 26.4737 80.297 25.044 81.422 25.044C82.2189 25.044 82.5236 25.583 82.5236 26.3565C82.5236 26.8487 82.4767 27.4346 82.3595 27.9268L81.0236 35.0283H84.5626L85.9454 27.7158C86.1095 26.9424 86.2033 26.0283 86.2033 25.3955C86.2267 23.3565 85.172 22.1612 83.3439 22.1612ZM94.2423 22.1612C89.9767 22.1612 87.1408 26.0049 87.1408 30.294C87.1408 33.0362 88.8283 35.2627 92.0158 35.2627C96.2111 35.2627 99.0236 31.5127 99.0236 27.1299C99.047 24.5752 97.5704 22.1612 94.2423 22.1612ZM92.5079 32.5205C91.2892 32.5205 90.797 31.4893 90.797 30.2002C90.797 28.1612 91.8517 24.8565 93.7736 24.8565C95.0392 24.8565 95.4376 25.9346 95.4376 26.9893C95.4376 29.1924 94.3829 32.5205 92.5079 32.5205ZM108.117 22.1612C105.727 22.1612 104.367 24.2705 104.367 24.2705H104.32L104.531 22.3721H101.391C101.227 23.6612 100.945 25.6065 100.664 27.083L98.2033 40.0674H101.742L102.727 34.8174H102.797C102.797 34.8174 103.524 35.2862 104.883 35.2862C109.055 35.2862 111.774 31.0205 111.774 26.708C111.774 24.294 110.719 22.1612 108.117 22.1612ZM104.742 32.5908C103.828 32.5908 103.289 32.0752 103.289 32.0752L103.875 28.7705C104.297 26.5674 105.445 25.0908 106.664 25.0908C107.742 25.0908 108.07 26.0986 108.07 27.0362C108.07 29.3096 106.711 32.5908 104.742 32.5908ZM116.836 17.0518C115.711 17.0518 114.797 17.9424 114.797 19.1143C114.797 20.1689 115.453 20.8955 116.461 20.8955H116.508C117.609 20.8955 118.57 20.1455 118.594 18.833C118.617 17.8018 117.914 17.0518 116.836 17.0518Z" fill="#6D7D93"/>
<path fill-rule="evenodd" clip-rule="evenodd" d="M111.867 35.0049H115.43L117.844 22.4424H114.258L111.867 35.0049Z" fill="#6D7D93"/>
<path fill-rule="evenodd" clip-rule="evenodd" d="M126.844 22.3955H124.383L124.5 21.8096C124.711 20.5908 125.414 19.5127 126.609 19.5127C127.242 19.5127 127.734 19.7002 127.734 19.7002L128.438 16.9346C128.438 16.9346 127.828 16.6299 126.516 16.6299C125.25 16.6299 124.008 16.9814 123.047 17.8018C121.828 18.833 121.266 20.3096 120.984 21.8096L120.891 22.3955H119.25L118.734 25.0674H120.375L118.5 34.9815H122.039L123.914 25.0674H126.352L126.844 22.3955ZM135.375 22.4424C135.375 22.4424 133.149 28.0205 132.164 31.0674H132.117C132.047 30.083 131.25 22.4424 131.25 22.4424H127.524L129.656 33.9736C129.703 34.2315 129.68 34.3955 129.586 34.5596C129.164 35.3565 128.484 36.1299 127.664 36.6924C127.008 37.1846 126.258 37.4893 125.672 37.7002L126.656 40.7002C127.383 40.5362 128.859 39.9502 130.125 38.7783C131.742 37.2549 133.242 34.9346 134.766 31.7471L139.102 22.4424H135.375ZM51.3517 39.9502L60.1173 38.0518C60.1173 38.0518 56.9533 16.6533 56.9298 16.5127C56.9064 16.3721 56.7892 16.2783 56.672 16.2783C56.5548 16.2783 54.3283 16.1143 54.3283 16.1143C54.3283 16.1143 52.7814 14.5674 52.5939 14.4033C52.547 14.3564 52.5001 14.333 52.4533 14.3096L51.3517 39.9502ZM52.0783 14.2627C52.0548 14.2627 52.0079 14.2861 51.9845 14.2861C51.9611 14.2861 51.6329 14.3799 51.1173 14.5439C50.6017 13.0439 49.6876 11.6611 48.0704 11.6611H47.9298C47.4611 11.0752 46.8986 10.8174 46.4064 10.8174C42.6329 10.8174 40.8282 15.5283 40.2657 17.9189C38.8126 18.3643 37.7579 18.6924 37.6407 18.7393C36.8204 18.9971 36.797 19.0205 36.7032 19.7939C36.6095 20.3564 34.4767 36.8799 34.4767 36.8799L50.9533 39.9736L52.0783 14.2627ZM47.7892 15.4111V15.5752C46.8751 15.8564 45.8673 16.1611 44.8829 16.4658C45.4454 14.3096 46.5001 13.2549 47.4142 12.8564C47.6486 13.4658 47.7892 14.2861 47.7892 15.4111ZM46.2892 11.8252C46.4533 11.8252 46.6173 11.8721 46.7814 11.9893C45.5861 12.5518 44.2736 13.9814 43.7345 16.8408C42.9376 17.0986 42.1642 17.333 41.4376 17.5439C42.0704 15.3643 43.5939 11.8252 46.2892 11.8252ZM46.9454 24.5518C46.9454 24.5518 45.9611 24.0362 44.7892 24.0362C43.0314 24.0362 42.9611 25.1377 42.9611 25.419C42.9611 26.919 46.8986 27.5049 46.8986 31.044C46.8986 33.833 45.1408 35.6143 42.7501 35.6143C39.8907 35.6143 38.4376 33.833 38.4376 33.833L39.2111 31.3018C39.2111 31.3018 40.7111 32.5908 41.9767 32.5908C42.797 32.5908 43.1486 31.9346 43.1486 31.4658C43.1486 29.4971 39.9142 29.4033 39.9142 26.169C39.9142 23.4502 41.8595 20.8018 45.8204 20.8018C47.3439 20.8018 48.0939 21.2471 48.0939 21.2471L46.9454 24.5518ZM48.4454 12.6924C49.2892 12.7861 49.8283 13.7471 50.1798 14.8252C49.7579 14.9658 49.2892 15.1064 48.7736 15.2705V14.9658C48.7736 14.0518 48.6564 13.3018 48.4454 12.6924Z" fill="#6D7D93"/>
</g>
</g>
</g>
</g>
<defs>
<clipPath id="clip0_4_886">
<rect width="106" height="30" fill="white" transform="translate(33.8097 10.8174)"/>
</clipPath>
<clipPath id="clip1_4_886">
<rect width="106" height="30" fill="white" transform="translate(33.8097 10.8174)"/>
</clipPath>
<clipPath id="clip2_4_886">
<rect width="106" height="30" fill="white" transform="translate(33.8097 10.8174)"/>
</clipPath>
</defs>
</svg>
