<svg width="173" height="45" viewBox="0 0 173 45" fill="none" xmlns="http://www.w3.org/2000/svg">
<g clip-path="url(#clip0_4_897)">
<g clip-path="url(#clip1_4_897)">
<g clip-path="url(#clip2_4_897)">
<mask id="mask0_4_897" style="mask-type:luminance" maskUnits="userSpaceOnUse" x="39" y="10" width="96" height="25">
<path d="M134.043 10.8174H39.7423V34.8174H134.043V10.8174Z" fill="white"/>
</mask>
<g mask="url(#mask0_4_897)">
<path fill-rule="evenodd" clip-rule="evenodd" d="M69.9458 29.6588L71.1203 26.9338C72.3883 27.8768 74.0725 28.3717 75.7419 28.3717C76.9674 28.3717 77.7447 27.9002 77.7447 27.1781C77.7256 25.171 70.3812 26.7406 70.3239 21.7091C70.3048 19.1497 72.5773 17.183 75.7929 17.183C77.7065 17.183 79.6223 17.6545 80.9794 18.7335L79.8856 21.5158C78.6368 20.7193 77.0842 20.148 75.6039 20.148C74.6056 20.148 73.9409 20.6259 73.9409 21.2333C73.96 23.2 81.3617 22.1253 81.4382 26.9338C81.4382 29.5462 79.2209 31.3791 76.0435 31.3791C73.7136 31.3791 71.5727 30.8333 69.9479 29.6588H69.9458ZM114.994 25.9483C114.625 26.5992 114.052 27.1097 113.363 27.4004C112.674 27.691 111.908 27.7454 111.185 27.555C110.462 27.3646 109.822 26.9401 109.366 26.3479C108.909 25.7556 108.662 25.0289 108.662 24.2811C108.662 23.5333 108.909 22.8066 109.366 22.2143C109.822 21.6221 110.462 21.1976 111.185 21.0072C111.908 20.8168 112.674 20.8711 113.363 21.1618C114.052 21.4524 114.625 21.963 114.994 22.6138L118.232 20.8128C117.465 19.4396 116.264 18.3597 114.817 17.7425C113.371 17.1252 111.76 17.0054 110.238 17.4018C108.715 17.7982 107.368 18.6884 106.406 19.9329C105.444 21.1775 104.922 22.706 104.922 24.279C104.922 25.8519 105.444 27.3805 106.406 28.625C107.368 29.8695 108.715 30.7598 110.238 31.1562C111.76 31.5525 113.371 31.4327 114.817 30.8154C116.264 30.1982 117.465 29.1183 118.232 27.7452L114.994 25.9483ZM83.063 11.2892H87.1196V31.1158H83.063V11.2892ZM119.821 11.2892V31.1158H123.878V25.1752L128.686 31.1158H133.873L127.756 24.0538L133.416 17.4655H128.455L123.871 22.9345V11.2892H119.821ZM99.16 25.9866C98.8162 26.5087 98.3469 26.9362 97.7952 27.2301C97.2435 27.524 96.6268 27.6748 96.0017 27.6687C95.1033 27.6687 94.2416 27.3118 93.6063 26.6765C92.971 26.0412 92.6141 25.1795 92.6141 24.2811C92.6141 23.3826 92.971 22.521 93.6063 21.8857C94.2416 21.2504 95.1033 20.8935 96.0017 20.8935C97.3653 20.8935 98.5759 21.6475 99.16 22.6351V25.9866ZM99.16 17.4655V19.0733C98.5016 17.9561 96.8513 17.1788 95.1288 17.1788C91.5692 17.1788 88.7635 20.3221 88.7635 24.2598C88.7635 28.2018 91.5692 31.3791 95.1288 31.3791C96.8492 31.3791 98.5016 30.606 99.16 29.4889V31.0924H103.217V17.4655H99.16ZM44.8902 25.9675C44.8902 26.462 44.7436 26.9454 44.4688 27.3565C44.194 27.7676 43.8035 28.0881 43.3466 28.2772C42.8896 28.4663 42.3869 28.5157 41.9019 28.4191C41.417 28.3225 40.9715 28.0842 40.622 27.7343C40.2725 27.3845 40.0346 26.9389 39.9384 26.4538C39.8421 25.9688 39.8919 25.4661 40.0815 25.0093C40.271 24.5526 40.5918 24.1623 41.0031 23.8879C41.4145 23.6135 41.898 23.4672 42.3925 23.4676H44.8902V25.9675ZM46.1412 25.9675C46.1315 25.6332 46.1889 25.3004 46.3101 24.9887C46.4313 24.677 46.6138 24.3928 46.8467 24.1529C47.0797 23.913 47.3585 23.7223 47.6665 23.5921C47.9745 23.4619 48.3056 23.3948 48.64 23.3948C48.9744 23.3948 49.3054 23.4619 49.6134 23.5921C49.9214 23.7223 50.2002 23.913 50.4332 24.1529C50.6662 24.3928 50.8487 24.677 50.9699 24.9887C51.0911 25.3004 51.1485 25.6332 51.1387 25.9675V32.2138C51.1198 32.8639 50.8482 33.4811 50.3817 33.9342C49.9151 34.3873 49.2903 34.6408 48.64 34.6408C47.9896 34.6408 47.3648 34.3873 46.8983 33.9342C46.4317 33.4811 46.1602 32.8639 46.1412 32.2138V25.9675ZM48.641 15.9278C48.1466 15.9274 47.6634 15.7804 47.2526 15.5053C46.8417 15.2303 46.5216 14.8396 46.3328 14.3827C46.144 13.9257 46.0949 13.423 46.1918 12.9382C46.2886 12.4534 46.5271 12.0081 46.877 11.6588C47.2269 11.3095 47.6725 11.0718 48.1575 10.9758C48.6425 10.8797 49.1451 10.9297 49.6018 11.1193C50.0584 11.3089 50.4485 11.6296 50.7229 12.0409C50.9972 12.4522 51.1434 12.9357 51.143 13.4301V15.9278H48.6432H48.641ZM48.641 17.2021C48.9753 17.1924 49.3081 17.2498 49.6198 17.371C49.9315 17.4922 50.2157 17.6747 50.4556 17.9077C50.6955 18.1407 50.8862 18.4194 51.0164 18.7275C51.1466 19.0355 51.2137 19.3665 51.2137 19.7009C51.2137 20.0353 51.1466 20.3663 51.0164 20.6743C50.8862 20.9824 50.6955 21.2611 50.4556 21.4941C50.2157 21.7271 49.9315 21.9096 49.6198 22.0308C49.3081 22.152 48.9753 22.2094 48.641 22.1997H42.3755C42.0413 22.2094 41.7084 22.152 41.3968 22.0308C41.0851 21.9096 40.8009 21.7271 40.561 21.4941C40.3211 21.2611 40.1304 20.9824 40.0002 20.6743C39.87 20.3663 39.8029 20.0353 39.8029 19.7009C39.8029 19.3665 39.87 19.0355 40.0002 18.7275C40.1304 18.4194 40.3211 18.1407 40.561 17.9077C40.8009 17.6747 41.0851 17.4922 41.3968 17.371C41.7084 17.2498 42.0413 17.1924 42.3755 17.2021H48.641ZM58.6573 19.6998C58.6573 19.2053 58.804 18.7219 59.0788 18.3108C59.3535 17.8996 59.7441 17.5792 60.201 17.3901C60.6579 17.201 61.1606 17.1516 61.6456 17.2482C62.1306 17.3448 62.576 17.5831 62.9255 17.9329C63.2751 18.2828 63.513 18.7284 63.6092 19.2134C63.7054 19.6985 63.6556 20.2012 63.4661 20.6579C63.2765 21.1147 62.9558 21.505 62.5444 21.7794C62.133 22.0538 61.6495 22.2001 61.155 22.1997H58.6594V19.6998H58.6573ZM57.4063 19.6998C57.4161 20.0341 57.3587 20.3669 57.2375 20.6786C57.1163 20.9903 56.9338 21.2745 56.7008 21.5144C56.4678 21.7543 56.189 21.945 55.881 22.0752C55.573 22.2054 55.242 22.2725 54.9076 22.2725C54.5732 22.2725 54.2422 22.2054 53.9341 22.0752C53.6261 21.945 53.3474 21.7543 53.1144 21.5144C52.8814 21.2745 52.6989 20.9903 52.5777 20.6786C52.4565 20.3669 52.3991 20.0341 52.4088 19.6998V13.4301C52.3991 13.0958 52.4565 12.763 52.5777 12.4513C52.6989 12.1396 52.8814 11.8554 53.1144 11.6156C53.3474 11.3757 53.6261 11.185 53.9341 11.0547C54.2422 10.9245 54.5732 10.8574 54.9076 10.8574C55.242 10.8574 55.573 10.9245 55.881 11.0547C56.189 11.185 56.4678 11.3757 56.7008 11.6156C56.9338 11.8554 57.1163 12.1396 57.2375 12.4513C57.3587 12.763 57.4161 13.0958 57.4063 13.4301V19.6998ZM54.9108 29.7161C55.4053 29.7161 55.8887 29.8628 56.2998 30.1376C56.711 30.4124 57.0314 30.8029 57.2205 31.2598C57.4096 31.7167 57.459 32.2195 57.3624 32.7044C57.2658 33.1894 57.0275 33.6348 56.6777 33.9843C56.3278 34.3339 55.8822 34.5718 55.3972 34.668C54.9121 34.7642 54.4094 34.7144 53.9527 34.5249C53.4959 34.3353 53.1056 34.0146 52.8312 33.6032C52.5568 33.1919 52.4105 32.7083 52.4109 32.2138V29.7161H54.9108ZM54.9108 28.4652C54.5765 28.4749 54.2437 28.4175 53.932 28.2963C53.6203 28.1751 53.3361 27.9926 53.0962 27.7596C52.8563 27.5266 52.6656 27.2479 52.5354 26.9398C52.4052 26.6318 52.3381 26.3008 52.3381 25.9664C52.3381 25.632 52.4052 25.301 52.5354 24.993C52.6656 24.6849 52.8563 24.4062 53.0962 24.1732C53.3361 23.9402 53.6203 23.7577 53.932 23.6365C54.2437 23.5153 54.5765 23.4579 54.9108 23.4676H61.1805C61.8306 23.4866 62.4477 23.7582 62.9009 24.2247C63.354 24.6912 63.6075 25.316 63.6075 25.9664C63.6075 26.6168 63.354 27.2415 62.9009 27.7081C62.4477 28.1746 61.8306 28.4462 61.1805 28.4652H54.9108Z" fill="#6D7D93"/>
</g>
</g>
</g>
</g>
<defs>
<clipPath id="clip0_4_897">
<rect width="95" height="24" fill="white" transform="translate(39.3097 10.8174)"/>
</clipPath>
<clipPath id="clip1_4_897">
<rect width="95" height="24" fill="white" transform="translate(39.3097 10.8174)"/>
</clipPath>
<clipPath id="clip2_4_897">
<rect width="95" height="24" fill="white" transform="translate(39.3097 10.8174)"/>
</clipPath>
</defs>
</svg>
